<svg xmlns="http://www.w3.org/2000/svg" xmlns:xlink="http://www.w3.org/1999/xlink" version="1.1" x="0px" y="0px" viewBox="0 0 100 125" style="enable-background:new 0 0 100 100;" xml:space="preserve"><style type="text/css">
	.st0{fill:none;stroke:#000000;stroke-width:2;stroke-linecap:round;stroke-linejoin:round;stroke-miterlimit:10;}
	.st1{stroke:#000000;stroke-width:2;stroke-linecap:round;stroke-linejoin:round;stroke-miterlimit:10;}
	.st2{fill:none;stroke:#000000;stroke-width:1.8;stroke-linecap:round;stroke-linejoin:round;stroke-miterlimit:10;}
</style><path d="M73.2,39.5c0-12.8-10.4-23.3-23.3-23.3S26.7,26.7,26.7,39.5S37.1,62.8,50,62.8S73.2,52.4,73.2,39.5z M71.2,39.5  c0,11.7-9.5,21.3-21.3,21.3s-21.3-9.5-21.3-21.3S38.3,18.3,50,18.3S71.2,27.8,71.2,39.5z"/><path d="M64.6,36.7c0-7.1-5.8-12.8-12.8-12.8c-0.6,0-1-0.4-1-1s0.4-1,1-1c8.2,0,14.8,6.7,14.8,14.8c0,0.6-0.4,1-1,1  S64.6,37.3,64.6,36.7z"/><path d="M33.9,87.4h31.7c0.6,0,1-0.4,1-1v-7c0-0.6-0.4-1-1-1H50.8v-7.1c17.1-0.5,30.8-14.6,30.8-31.7c0-2.5-0.3-5-0.9-7.3  c-0.1-0.5-0.7-0.9-1.2-0.7c-0.5,0.1-0.9,0.7-0.7,1.2c0.5,1.9,0.7,3.9,0.8,5.9h-2c-0.5-14.8-12.7-26.7-27.7-26.7S22.6,23.7,22.1,38.5  h-2c0.1-2,0.3-4,0.8-5.9c0.1-0.5-0.2-1.1-0.7-1.2c-0.5-0.1-1.1,0.2-1.2,0.7C18.3,34.6,18,37,18,39.5c0,17.2,13.7,31.2,30.8,31.7v7.1  H33.9c-0.6,0-1,0.4-1,1v7C32.9,87,33.4,87.4,33.9,87.4z M75.5,39.5c0,14.2-11.5,25.7-25.7,25.7c-14.2,0-25.7-11.5-25.7-25.7  s11.5-25.7,25.7-25.7C64,13.8,75.5,25.3,75.5,39.5z M49.8,69.3c-16.1,0-29.2-12.8-29.7-28.8h2c0.5,14.8,12.7,26.7,27.7,26.7  s27.2-11.9,27.7-26.7h2C79,56.5,65.9,69.3,49.8,69.3z M34.9,80.4h29.7v5H34.9V80.4z"/></svg>
